<svg xmlns="http://www.w3.org/2000/svg" xmlns:xlink="http://www.w3.org/1999/xlink" width="153" height="20" viewBox="0 0 153 20">
    <defs>
        <path id="prefix__a" d="M0 0L152.665 0 152.665 19.826 0 19.826z"/>
    </defs>
    <g fill="none" fill-rule="evenodd">
        <mask id="prefix__b" fill="#fff">
            <use xlink:href="#prefix__a"/>
        </mask>
        <path fill="#FFF" d="M11.338 19.375h5.26V5.301h-5.26v14.074zm0-15.593h5.26V.012h-5.26v3.77zM2.152 19.375h5.26V9.213h2.656V5.3H7.305C7.225 4 7.592 3.81 8.867 3.81H10.2V.011c-.797-.027-1.567 0-2.364 0-2.125 0-3.453.163-4.597 1.33C2.231 2.371 2.098 3.917 2.152 5.3H0v3.913h2.152v10.162zm15.817 0h5.26v-7.43c0-2.252 1.195-2.712 2.098-2.712 1.541 0 1.727 1.139 1.727 2.766v7.376h5.26V9.721c0-3.227-2.258-4.773-4.728-4.773-2.1 0-3.508.732-4.49 2.142h-.053V5.3h-5.074v14.075zm24.28-5.017c-.08 1.464-1.01 2.196-2.204 2.196-.957 0-1.648-.65-1.648-1.301 0-.95.612-1.247 1.78-1.519.718-.162 1.435-.352 2.072-.678v1.302zm5.048-3.905c0-2.712.053-5.505-6.535-5.505-3.268 0-6.934.65-7.093 4.61h4.888c.026-.597.345-1.437 1.966-1.437.85 0 1.726.352 1.726 1.301 0 .896-.717 1.112-1.434 1.248-2.684.515-7.784.352-7.784 4.8 0 2.956 2.205 4.257 4.862 4.257 1.7 0 3.32-.379 4.436-1.681h.053c-.026.38.053.95.186 1.33h4.729v-8.923zm1.344 8.922h5.26v-7.43c0-2.252 1.195-2.712 2.098-2.712 1.541 0 1.727 1.139 1.727 2.766v7.376h5.26V9.721c0-3.227-2.258-4.773-4.729-4.773-2.099 0-3.507.732-4.49 2.142h-.053V5.3h-5.073v14.075zm15.356 0h13.76V15.47h-6.853L77.2 9.422V5.3H64.58v3.906h5.871l-6.455 6.02v4.15zm18.888-8.624c.24-1.518 1.143-2.358 2.71-2.358 1.354 0 2.311 1.057 2.311 2.358h-5.02zm10.068 2.794c0-5.478-2.364-8.597-7.836-8.597-4.357 0-7.279 3.336-7.279 7.43 0 4.692 3.32 7.35 7.73 7.35 3.134 0 6.03-1.411 7.094-4.448h-4.915c-.425.678-1.356 1.003-2.205 1.003-1.647 0-2.55-1.138-2.683-2.738h10.094zm.877 5.83h5.26v-7.43c0-2.252 1.196-2.712 2.098-2.712 1.541 0 1.727 1.139 1.727 2.766v7.376h5.034V9.721c0-3.227-2.031-4.773-4.503-4.773-2.098 0-3.506.732-4.489 2.142h-.053V5.3H93.83v14.075zM120.041 5.139h1.708V7.6h.053c.624-1.714 2.494-2.877 4.472-2.877 3.928 0 5.12 2.103 5.12 5.505v9.183h-1.706v-8.906c0-2.462-.786-4.316-3.55-4.316-2.71 0-4.336 2.103-4.39 4.897v8.325h-1.707V5.139zM143.886 11.279c-.081-2.628-1.68-5.09-4.443-5.09-2.792 0-4.336 2.49-4.607 5.09h9.05zm-9.05 1.466c.027 2.545 1.327 5.615 4.607 5.615 2.492 0 3.848-1.494 4.39-3.652h1.706c-.731 3.237-2.574 5.118-6.096 5.118-4.444 0-6.314-3.485-6.314-7.551 0-3.762 1.87-7.552 6.314-7.552 4.497 0 6.286 4.012 6.15 8.022h-10.757zM149.82 5.139h2.846v1.465h-2.845v9.626c0 1.134.161 1.798 1.38 1.88.489 0 .977-.027 1.465-.082v1.493c-.516 0-1.004.056-1.518.056-2.276 0-3.062-.775-3.035-3.209V6.604h-2.438V5.139h2.438V.85h1.708v4.288z" mask="url(#prefix__b)"/>
        <path fill="#D70413" d="M113.908 19.525c2.494 0 4.515-2.064 4.515-4.609 0-2.546-2.021-4.61-4.515-4.61-2.494 0-4.515 2.064-4.515 4.61 0 2.545 2.021 4.609 4.515 4.609" mask="url(#prefix__b)"/>
        <path fill="#E42522" d="M113.908 14.205c1.93 0 3.613 1.063 4.508.865.001-.052.007-.102.007-.154 0-2.546-2.021-4.61-4.515-4.61-2.494 0-4.515 2.064-4.515 4.61 0 .052.005.102.007.154.894.199 2.577-.865 4.508-.865" mask="url(#prefix__b)"/>
    </g>
</svg>