<svg width="32" height="32" viewBox="0 0 32 32" fill="none" xmlns="http://www.w3.org/2000/svg">
<g clip-path="url(#clip0_332_1016)">
<path d="M16 32C24.8366 32 32 24.8366 32 16C32 7.16344 24.8366 0 16 0C7.16344 0 0 7.16344 0 16C0 24.8366 7.16344 32 16 32Z" fill="#26A17B"/>
<path fill-rule="evenodd" clip-rule="evenodd" d="M17.9218 17.3833V17.3813C17.8118 17.3893 17.2448 17.4233 15.9798 17.4233C14.9698 17.4233 14.2588 17.3933 14.0088 17.3813V17.3843C10.1208 17.2133 7.2188 16.5363 7.2188 15.7263C7.2188 14.9173 10.1208 14.2403 14.0088 14.0663V16.7103C14.2628 16.7283 14.9908 16.7713 15.9968 16.7713C17.2038 16.7713 17.8088 16.7213 17.9218 16.7113V14.0683C21.8018 14.2413 24.6968 14.9183 24.6968 15.7263C24.6968 16.5363 21.8018 17.2113 17.9218 17.3833ZM17.9218 13.7933V11.4273H23.3358V7.81934H8.5948V11.4273H14.0088V13.7923C9.6088 13.9943 6.2998 14.8663 6.2998 15.9103C6.2998 16.9543 9.6088 17.8253 14.0088 18.0283V25.6103H17.9218V18.0263C22.3148 17.8243 25.6158 16.9533 25.6158 15.9103C25.6158 14.8673 22.3148 13.9963 17.9218 13.7933Z" fill="white"/>
</g>
<defs>
<clipPath id="clip0_332_1016">
<rect width="32" height="32" fill="white"/>
</clipPath>
</defs>
</svg>
