<svg xmlns="http://www.w3.org/2000/svg" width="1101.95" height="229.75" viewBox="0 0 1101.95 229.75">
  <defs>
    <style>
      .a {
        fill: #06a551;
      }

      .b {
        fill: #fff;
      }
    </style>
  </defs>
  <g>
    <path class="a" d="M121.7,49.23c15,0,19.85,3.16,28.73,8.9,22.14,14.31,32.5,43.14,25.2,70.1-.28,1-.57,2-.86,3-8,26.57-33.23,45.13-61.49,45.13H49.23V116.58c3.55-47.81,24.64-67.35,72.47-67.35M121.7,0C82.51,0,6.84,10.94,0,114.87V225.63H113.28c49.91,0,94.35-32.44,108.65-80.26.42-1.4.83-2.83,1.22-4.28,12.74-47.06-5.05-97.82-46-124.3C163.18,7.75,149.05,0,121.7,0Z"/>
    <path class="a" d="M290.29,71.73c-23.86,0-43.06,6.7-57.22,20-21.12,19.82-22.53,46.62-22.5,53.87-2,24.31,8.19,71.09,61.71,82.36a81.68,81.68,0,0,0,16.9,1.8c54.92,0,84.85-58.47,86.21-61.2l-34.21-17.18c-.22.43-20.76,40-52.79,40a40,40,0,0,1-8.22-.86,45,45,0,0,1-14.5-5.58l93.81-54.48-4.93-14.78c-4.32-13-19-36.55-46.82-42.72l-2.12-.35a146,146,0,0,0-15.32-.85Zm-41.64,78.78c0-.91.07-1.66.12-2.19l.16-1-.07-1.59c0-.16-.22-16.28,10.63-26.25,6.82-6.26,17.14-9.42,30.76-9.42,3.18,0,6.55.18,10.09.52a23.27,23.27,0,0,1,9,4.75l-60.68,35.23Z"/>
    <path class="a" d="M442.51,71.73c-23.86,0-43.07,6.7-57.23,20-21.11,19.82-22.52,46.62-22.5,53.87-2,24.31,8.19,71.09,61.71,82.36a81.7,81.7,0,0,0,16.91,1.8c54.91,0,84.84-58.47,86.21-61.2l-34.22-17.18c-.22.43-20.74,40-52.77,40a40.24,40.24,0,0,1-8.24-.87,45,45,0,0,1-14.5-5.58l93.81-54.48-4.92-14.78c-4.33-13-19-36.55-46.83-42.72l-2.11-.35a146.18,146.18,0,0,0-15.32-.85Zm-41.65,78.78c0-.91.08-1.66.12-2.19l.17-1-.07-1.59c0-.16-.23-16.28,10.63-26.25,6.82-6.26,17.13-9.42,30.75-9.42,3.19,0,6.55.18,10.09.52a23.2,23.2,0,0,1,9,4.75l-60.68,35.23Z"/>
    <polygon class="b" points="643.02 221.53 540.47 221.53 540.47 80.68 570.55 80.68 570.55 191.44 643.02 191.44 643.02 221.53"/>
    <path class="b" d="M720,116a50.57,50.57,0,0,0-18-2.36c-36,1.43-50.52,13.54-50.52,13.54l10.94,21.88s21.88-16.41,41-10.94,13.67,19.15,13.67,19.15l-25.54-2.14a47.1,47.1,0,0,0-25.06,4.54c-8.88,4.43-17.77,12.64-17.77,27.68,0,30.08,30.08,32.82,30.08,32.82s32.82,5.47,41-10.94v13.67h27.34V154.52S749.43,125.72,720,116Zm-17.88,83.66c-15,2.73-21.2-1.37-23.58-6.16-2.65-5.3-.27-11.81,4.9-14.68,7.74-6.51,35.09-3.78,35.09-3.78C718.5,196.91,702.09,199.65,702.09,199.65Z"/>
    <path class="b" d="M868.75,154.52v65.64H841.4V158.62s1.37-21.88-26-21.88c-17.91,0-22.34,20.19-23.24,34.08a95.26,95.26,0,0,0,0,12.66,1.64,1.64,0,0,1,0,.25v36.43H762.09V113.5h30.09v8.23a65.77,65.77,0,0,1,38.29-8.23c27.34,2.73,32.81,19.14,32.81,19.14S868.75,138.11,868.75,154.52Z"/>
    <path class="b" d="M964.58,153.15l21.88-13.67s-10.94-32.82-62.91-24.61-41,65.63-41,65.63,5.47,41,54.7,41c21.88,0,41-8.21,49.23-27.35l-21.88-10.94s-8.34,16.09-30.09,13.67c-24.61-2.73-24.61-27.35-24.61-27.35s-2.74-24.61,21.88-30.08S964.58,153.15,964.58,153.15Z"/>
    <path class="b" d="M1050,198.28c-30.08-5.47-27.35-21.88-27.35-21.88H1102s0-5.14-1.36-18.1c-2.06-19.72-16-36.41-35.2-41.22a34.76,34.76,0,0,0-4.46-.85s-38.29-8.2-57.43,16.41-8.21,54.7-8.21,54.7,8.21,32.82,49.23,35.55,52-21.88,52-21.88l-16.41-16.41S1069.13,201,1050,198.28Zm-5.47-62.9c24.61,0,30.08,21.88,30.08,21.88h-54.69S1028.11,135.38,1044.52,135.38Z"/>
  </g>
</svg>
