<?xml version="1.0" ?><svg viewBox="0 0 64 64" xmlns="http://www.w3.org/2000/svg"><defs><style>.cls-1{fill:none;stroke:#000;stroke-linecap:round;stroke-linejoin:round;stroke-width:2px;}</style></defs><g id="no-nft"><line class="cls-1" x1="7" x2="7" y1="5" y2="9"/><line class="cls-1" x1="5" x2="9" y1="7" y2="7"/><circle cx="16.5532" cy="4.2188" r="1.0691"/><circle cx="55.5532" cy="56.2188" r="1.0691"/><circle class="cls-1" cx="32" cy="32" r="13"/><polyline class="cls-1" points="34 29 31 29 31 35"/><line class="cls-1" x1="34" x2="31" y1="32" y2="32"/><polyline class="cls-1" points="28 33 24 29 24 35"/><line class="cls-1" x1="28" x2="28" y1="29" y2="35"/><line class="cls-1" x1="37" x2="41" y1="29" y2="29"/><line class="cls-1" x1="39" x2="39" y1="35" y2="29"/><path class="cls-1" d="M32,6A26,26,0,1,0,58,32,26.03,26.03,0,0,0,32,6Zm0,49a22.91,22.91,0,0,1-15.6819-6.197l4.159-4.159L18.356,42.5229l-4.0979,4.0979A22.9886,22.9886,0,0,1,46.6209,14.2579L43.0225,17.856l2.1211,2.1211,3.66-3.6592A22.9834,22.9834,0,0,1,32,55Z"/></g></svg>